<?xml version="1.0" standalone="no"?>
<!DOCTYPE svg PUBLIC "-//W3C//DTD SVG 20010904//EN"
 "http://www.w3.org/TR/2001/REC-SVG-20010904/DTD/svg10.dtd">
<svg version="1.0" xmlns="http://www.w3.org/2000/svg"
 width="1600.000000pt" height="1600.000000pt" viewBox="0 0 1600.000000 1600.000000"
 preserveAspectRatio="xMidYMid meet">

<g transform="translate(0.000000,1600.000000) scale(0.100000,-0.100000)"
fill="#000000" stroke="none">
<path d="M2311 13988 c-333 -42 -651 -204 -893 -456 -198 -207 -325 -448 -390
-742 l-23 -105 0 -2685 0 -2685 22 -101 c71 -317 196 -549 417 -770 220 -219
450 -344 765 -416 94 -21 116 -22 938 -25 l843 -4 2 -998 3 -999 1334 999
1334 998 1516 4 1516 3 96 22 c315 72 546 198 765 416 219 220 348 456 416
766 l23 105 0 2685 0 2685 -22 101 c-70 315 -197 550 -417 770 -219 219 -447
343 -765 416 l-96 23 -3655 1 c-2209 1 -3684 -2 -3729 -8z m7308 -1003 c179
-43 323 -187 366 -366 13 -56 15 -375 15 -2619 0 -2810 4 -2618 -61 -2740 -39
-74 -125 -160 -199 -199 -119 -64 -25 -61 -1800 -61 l-1615 0 -665 -500 -665
-499 -3 500 -2 499 -1273 0 c-1398 0 -1339 -2 -1457 61 -74 39 -160 125 -199
199 -65 122 -61 -70 -61 2740 0 2810 -4 2618 61 2740 39 74 125 160 199 199
119 64 -164 59 3735 60 3142 1 3568 -1 3624 -14z"/>
<path d="M11997 9128 c-3 -1682 -5 -1883 -19 -1973 -85 -515 -267 -911 -594
-1294 -335 -393 -834 -691 -1341 -801 -258 -56 -190 -53 -1678 -59 l-1380 -6
-865 -649 c-476 -357 -868 -651 -872 -655 -13 -11 136 -193 233 -285 202 -190
435 -311 728 -378 96 -22 96 -22 1616 -28 l1520 -5 1322 -992 c728 -546 1325
-993 1328 -993 3 0 5 448 5 995 l0 994 848 4 c836 3 848 3 947 26 462 104 825
378 1034 781 68 130 109 247 143 400 l23 105 0 2675 c0 2571 -1 2679 -19 2775
-27 145 -77 290 -146 423 -210 404 -581 685 -1039 785 -92 20 -128 21 -943 24
l-847 4 -4 -1873z"/>
</g>
</svg>
