<?xml version="1.0" standalone="no"?>
<!DOCTYPE svg PUBLIC "-//W3C//DTD SVG 20010904//EN"
 "http://www.w3.org/TR/2001/REC-SVG-20010904/DTD/svg10.dtd">
<svg version="1.0" xmlns="http://www.w3.org/2000/svg"
 width="500.000000pt" height="500.000000pt" viewBox="0 0 500.000000 500.000000"
 preserveAspectRatio="xMidYMid meet">

<g transform="translate(0.000000,500.000000) scale(0.100000,-0.100000)"
fill="#000000" stroke="none">
<path d="M2210 4724 c-107 -10 -337 -76 -540 -155 -199 -77 -372 -183 -562
-341 -322 -270 -495 -501 -685 -917 -56 -121 -102 -290 -122 -446 -23 -179
-18 -730 7 -860 32 -158 118 -381 237 -608 135 -258 408 -558 690 -757 229
-163 548 -309 785 -359 30 -7 73 -16 95 -21 171 -37 410 -53 594 -40 80 6 153
13 161 15 8 3 44 9 80 14 118 18 244 49 350 87 440 155 758 375 1054 729 144
173 253 353 350 581 108 255 131 382 141 774 10 387 -9 543 -101 790 -135 369
-410 760 -709 1010 -290 242 -669 422 -1013 481 -97 17 -173 21 -442 24 -179
1 -345 1 -370 -1z m510 -79 c466 -54 757 -157 1094 -384 307 -207 556 -488
716 -809 156 -312 230 -627 230 -982 0 -191 -15 -306 -70 -542 -38 -164 -136
-392 -248 -573 -130 -213 -392 -491 -590 -627 -276 -189 -598 -329 -852 -368
-41 -7 -100 -17 -130 -22 -72 -14 -552 -14 -616 0 -27 6 -85 16 -129 22 -44 7
-91 16 -105 20 -14 5 -65 21 -115 36 -485 144 -928 486 -1223 944 -145 226
-237 481 -293 810 -31 188 -29 445 5 640 68 382 200 692 424 989 68 91 287
313 362 368 233 170 419 271 662 359 81 30 154 54 162 54 8 0 41 7 73 15 99
25 362 61 463 63 30 1 111 -5 180 -13z"/>
<path d="M2505 4410 c-92 -17 -136 -57 -154 -141 -7 -29 -21 -68 -32 -86 -18
-29 -20 -43 -14 -101 8 -77 5 -81 -62 -101 -23 -6 -58 -27 -78 -45 -31 -29
-35 -39 -35 -82 0 -67 -31 -119 -66 -110 -13 3 -35 9 -49 12 -29 7 -157 -61
-200 -106 -25 -26 -26 -33 -29 -151 -2 -103 -6 -131 -24 -165 -12 -23 -28 -44
-37 -47 -20 -8 -19 -33 1 -41 25 -10 160 -7 189 4 15 6 62 47 104 91 62 64 82
80 102 77 23 -3 24 -7 29 -86 l5 -83 400 0 c220 1 407 1 415 1 12 0 15 16 15
82 0 79 1 83 23 86 17 3 43 -16 105 -76 45 -44 92 -85 104 -91 23 -12 160 -15
187 -5 22 9 20 30 -5 47 -35 25 -52 92 -57 219 l-4 118 -37 32 c-20 19 -66 49
-103 68 -62 32 -69 34 -102 22 -26 -10 -41 -10 -56 -2 -21 11 -25 25 -34 105
-5 40 -12 56 -40 82 -19 17 -54 37 -78 44 -66 19 -69 23 -62 98 5 56 3 71 -14
101 -12 19 -26 60 -33 90 -12 61 -36 93 -89 120 -42 21 -130 31 -185 20z m-27
-300 c69 -19 78 -20 146 -5 41 8 81 17 90 21 26 10 19 -5 -35 -71 -88 -109
-119 -111 -211 -14 -57 60 -78 89 -65 89 1 0 35 -9 75 -20z"/>
<path d="M1709 3203 c-60 -7 -73 -30 -77 -139 -3 -66 -1 -99 8 -109 9 -11 35
-15 109 -15 131 0 147 10 195 125 59 142 60 135 -16 135 -36 0 -92 2 -124 4
-32 2 -75 2 -95 -1z"/>
<path d="M2243 3203 c-7 -2 -13 -21 -13 -41 0 -33 -16 -122 -35 -194 l-7 -28
377 0 377 0 -6 23 c-14 49 -36 171 -36 202 0 21 -6 35 -16 39 -19 7 -623 7
-641 -1z"/>
<path d="M3235 3202 c-44 -2 -84 -7 -89 -12 -10 -10 1 -40 46 -135 51 -107 64
-115 185 -115 123 0 128 4 125 114 -2 102 -17 132 -71 145 -36 9 -53 9 -196 3z"/>
<path d="M1664 2850 c-24 -8 -43 -28 -78 -84 -25 -40 -46 -79 -46 -85 0 -21
48 -42 113 -48 80 -7 92 1 102 65 3 26 14 68 23 94 9 26 13 50 10 54 -12 11
-92 14 -124 4z"/>
<path d="M2166 2848 c-3 -7 -7 -35 -10 -63 -5 -39 -13 -56 -36 -77 -38 -35
-39 -65 -2 -75 15 -5 224 -8 464 -8 403 0 439 1 455 17 16 17 15 20 -20 56
-31 32 -38 47 -45 98 l-7 59 -398 3 c-313 2 -398 0 -401 -10z"/>
<path d="M3351 2851 c-12 -8 -12 -17 2 -63 9 -29 19 -71 23 -93 9 -57 19 -65
78 -64 79 2 109 11 125 40 14 25 13 29 -22 78 -20 28 -37 55 -37 61 0 30 -137
63 -169 41z"/>
<path d="M1604 2515 c-16 -40 67 -93 101 -65 24 20 18 55 -10 68 -37 17 -84
15 -91 -3z"/>
<path d="M2065 2522 l-50 -7 -11 -70 c-7 -38 -11 -88 -10 -110 l2 -40 200 0
c109 0 211 3 226 8 21 5 30 17 39 47 37 125 160 132 203 13 16 -46 23 -54 55
-63 20 -5 121 -10 225 -10 l189 0 -6 107 c-3 58 -10 110 -15 115 -10 10 -975
19 -1047 10z"/>
<path d="M3424 2505 c-21 -21 -23 -29 -14 -40 7 -8 21 -15 31 -15 19 0 89 56
89 71 0 5 -18 9 -40 9 -30 0 -47 -7 -66 -25z"/>
<path d="M2125 2181 c-39 -4 -76 -10 -83 -15 -27 -17 -6 -150 29 -178 39 -32
247 -13 256 23 3 10 18 23 33 29 38 16 79 92 61 113 -19 24 -183 39 -296 28z"/>
<path d="M2814 2180 c-81 -9 -118 -24 -110 -47 3 -8 6 -19 6 -23 0 -16 61 -80
76 -80 7 0 18 -9 23 -19 13 -24 105 -41 220 -41 l82 0 -3 108 -3 107 -110 1
c-60 1 -142 -2 -181 -6z"/>
<path d="M2032 1810 c-32 -20 -71 -86 -72 -122 0 -10 8 -22 18 -27 23 -12 260
-26 295 -17 25 6 26 9 21 59 -12 123 -17 127 -137 127 -75 0 -98 -4 -125 -20z"/>
<path d="M2858 1823 c-20 -5 -24 -16 -37 -103 -8 -49 -8 -66 2 -72 6 -5 80 -7
162 -6 175 4 201 12 191 61 -9 46 -36 79 -86 105 -36 18 -59 22 -130 21 -47
-1 -93 -3 -102 -6z"/>
<path d="M2030 1503 c-50 -7 -57 -16 -70 -91 -15 -89 -11 -92 137 -92 l113 0
0 78 c0 42 -4 83 -9 91 -9 14 -109 23 -171 14z"/>
<path d="M2932 1503 c-36 -4 -43 -7 -37 -21 4 -9 12 -42 18 -73 18 -85 24 -89
131 -88 154 2 167 14 119 109 -38 75 -74 87 -231 73z"/>
<path d="M1992 1144 c-12 -8 -22 -24 -22 -35 0 -11 -9 -37 -20 -59 -11 -22
-20 -42 -20 -45 0 -3 41 -5 90 -5 77 0 93 3 111 21 11 11 18 28 15 37 -3 9 -8
30 -12 45 -12 50 -95 74 -142 41z"/>
<path d="M3014 1126 c-27 -27 -34 -42 -34 -74 0 -27 5 -42 16 -46 17 -6 204
-9 204 -2 0 2 -16 38 -35 80 l-34 76 -42 0 c-33 0 -47 -6 -75 -34z"/>
<path d="M1876 810 c-17 -10 -36 -31 -44 -46 -14 -26 -13 -29 8 -46 48 -39
178 -10 216 47 18 27 17 28 -5 46 -33 27 -135 26 -175 -1z"/>
<path d="M3067 823 c-14 -13 -7 -40 16 -60 77 -71 207 -81 223 -17 8 31 -1 43
-50 65 -41 18 -174 27 -189 12z"/>
</g>
</svg>
