<?xml version="1.0" standalone="no"?>
<!DOCTYPE svg PUBLIC "-//W3C//DTD SVG 20010904//EN"
 "http://www.w3.org/TR/2001/REC-SVG-20010904/DTD/svg10.dtd">
<svg version="1.0" xmlns="http://www.w3.org/2000/svg"
 width="266.000000pt" height="189.000000pt" viewBox="0 0 266.000000 189.000000"
 preserveAspectRatio="xMidYMid meet">

<g transform="translate(0.000000,189.000000) scale(0.100000,-0.100000)"
fill="#000000" stroke="none">
<path d="M1177 1770 c-67 -12 -171 -47 -231 -77 -151 -76 -295 -217 -369 -360
-77 -151 -92 -213 -92 -393 0 -135 3 -165 23 -230 49 -154 121 -270 239 -381
325 -306 841 -306 1166 0 89 84 138 151 188 254 62 131 74 190 74 362 0 129
-3 160 -23 225 -74 234 -243 431 -456 531 -115 54 -189 70 -336 74 -74 2 -156
0 -183 -5z m250 -31 c320 -43 572 -247 674 -542 152 -444 -110 -918 -575
-1037 -109 -28 -283 -28 -392 0 -465 118 -728 592 -575 1037 100 292 353 498
666 542 86 12 114 12 202 0z"/>
<path d="M1272 1644 c-12 -8 -22 -26 -22 -39 0 -13 -5 -27 -11 -31 -7 -4 -9
-21 -6 -40 5 -28 2 -34 -11 -34 -30 0 -61 -28 -55 -50 7 -28 -15 -54 -33 -39
-11 9 -23 5 -55 -16 -38 -24 -41 -29 -37 -63 5 -40 -8 -92 -23 -92 -5 0 -9 -4
-9 -10 0 -5 19 -10 43 -10 36 0 46 5 70 35 36 45 58 46 55 3 l-3 -33 155 0
155 0 -3 33 c-3 43 19 42 55 -3 24 -30 34 -35 71 -35 23 0 42 5 42 10 0 6 -4
10 -9 10 -15 0 -28 52 -23 92 4 34 1 39 -37 63 -32 21 -44 25 -55 16 -18 -15
-40 11 -33 39 6 22 -25 50 -55 50 -13 0 -16 6 -11 34 3 19 1 36 -6 40 -6 4
-11 18 -11 31 0 31 -35 55 -80 55 -20 0 -46 -7 -58 -16z m53 -106 c6 0 23 3
39 7 l30 8 -23 -31 c-28 -40 -54 -40 -82 0 l-23 31 25 -7 c13 -4 29 -8 34 -8z"/>
<path d="M986 1188 c-2 -13 -4 -35 -4 -50 0 -27 2 -28 48 -28 47 0 49 1 69 43
12 24 21 46 21 50 0 4 -29 7 -65 7 -59 0 -65 -2 -69 -22z"/>
<path d="M1205 1183 c-1 -16 -4 -38 -9 -50 l-7 -23 141 0 141 0 -7 23 c-5 12
-8 34 -9 50 l0 27 -125 0 -125 0 0 -27z"/>
<path d="M1540 1203 c0 -4 9 -26 21 -50 20 -42 22 -43 69 -43 46 0 48 1 48 28
-1 70 -3 72 -73 72 -36 0 -65 -3 -65 -7z"/>
<path d="M980 1069 c0 -6 -7 -17 -15 -26 -27 -26 -14 -48 28 -48 32 -1 37 2
37 23 0 13 5 32 10 43 10 17 7 19 -25 19 -19 0 -35 -5 -35 -11z"/>
<path d="M1180 1055 c0 -14 -7 -28 -15 -31 -8 -4 -15 -12 -15 -20 0 -11 33
-14 180 -14 147 0 180 3 180 14 0 8 -7 16 -15 20 -8 3 -15 17 -15 31 l0 25
-150 0 -150 0 0 -25z"/>
<path d="M1620 1061 c5 -11 10 -30 10 -43 0 -21 5 -24 37 -23 42 0 55 22 28
48 -8 9 -15 20 -15 26 0 6 -16 11 -35 11 -32 0 -35 -2 -25 -19z"/>
<path d="M970 951 c0 -5 7 -14 15 -21 18 -15 42 1 31 19 -8 13 -46 15 -46 2z"/>
<path d="M1127 954 c-4 -4 -7 -25 -7 -46 l0 -38 84 0 c79 0 85 1 88 21 7 49
69 49 76 0 3 -20 9 -21 88 -21 l85 0 -3 43 -3 42 -201 3 c-110 1 -203 -1 -207
-4z"/>
<path d="M1644 949 c-13 -22 12 -30 31 -9 18 19 18 20 -3 20 -11 0 -24 -5 -28
-11z"/>
<path d="M1130 813 c0 -10 3 -28 6 -41 6 -21 12 -23 58 -20 36 2 50 7 48 16
-1 8 2 11 7 7 10 -6 31 24 31 44 0 7 -29 11 -75 11 -65 0 -75 -2 -75 -17z"/>
<path d="M1380 819 c0 -20 21 -50 31 -44 5 4 8 1 7 -7 -2 -9 13 -14 55 -16
l57 -3 0 41 0 40 -75 0 c-46 0 -75 -4 -75 -11z"/>
<path d="M1118 678 c-24 -44 -20 -48 48 -48 l65 0 -3 35 c-2 35 -2 35 -50 35
-39 0 -50 -4 -60 -22z"/>
<path d="M1429 693 c0 -5 -2 -20 -4 -35 l-4 -28 70 0 c61 0 69 2 67 17 -6 37
-31 53 -80 53 -27 0 -48 -3 -49 -7z"/>
<path d="M1110 568 c0 -7 -3 -23 -6 -35 -6 -22 -3 -23 45 -23 l51 0 0 35 c0
35 0 35 -45 35 -29 0 -45 -4 -45 -12z"/>
<path d="M1448 573 c6 -2 12 -18 12 -34 0 -28 2 -29 48 -29 27 0 51 3 54 6 3
3 -1 18 -9 35 -13 27 -19 29 -66 28 -29 0 -46 -3 -39 -6z"/>
<path d="M1110 432 c0 -10 -5 -23 -12 -30 -9 -9 -3 -12 28 -12 49 0 53 3 46
35 -3 20 -10 25 -33 25 -21 0 -29 -5 -29 -18z"/>
<path d="M1486 428 c-9 -37 -8 -38 41 -38 37 0 44 3 35 12 -7 7 -12 20 -12 30
0 29 -56 25 -64 -4z"/>
<path d="M1061 311 c-13 -23 -5 -31 29 -31 32 0 66 23 56 38 -12 20 -74 15
-85 -7z"/>
<path d="M1510 322 c0 -17 37 -42 63 -42 31 0 43 16 27 35 -13 16 -90 21 -90
7z"/>
</g>
</svg>
