<?xml version="1.0" standalone="no"?>
<!DOCTYPE svg PUBLIC "-//W3C//DTD SVG 20010904//EN"
 "http://www.w3.org/TR/2001/REC-SVG-20010904/DTD/svg10.dtd">
<svg version="1.0" xmlns="http://www.w3.org/2000/svg"
 width="266.000000pt" height="266.000000pt" viewBox="0 0 266.000000 266.000000"
 preserveAspectRatio="xMidYMid meet">

<g transform="translate(0.000000,266.000000) scale(0.100000,-0.100000)"
fill="#000000" stroke="none">
<path d="M1220 2430 c0 -11 5 -20 10 -20 6 0 10 7 10 15 0 10 17 15 68 18 l67
3 -77 2 c-72 2 -78 0 -78 -18z"/>
<path d="M1382 2443 c52 -100 47 -117 -35 -133 -112 -22 -119 -21 -133 27 -7
24 -21 56 -30 73 -22 36 -40 37 -142 11 -70 -18 -91 -27 -81 -34 2 -2 23 -15
47 -31 27 -17 49 -41 58 -63 14 -33 14 -37 -7 -59 -12 -13 -38 -29 -58 -35
-20 -6 -54 -21 -75 -31 l-39 -20 -61 66 c-78 83 -97 85 -184 20 -75 -56 -74
-63 33 -129 41 -26 75 -49 75 -52 0 -2 -19 -23 -43 -46 -23 -23 -54 -57 -68
-75 l-25 -32 -98 47 -98 48 -20 -25 c-21 -26 -81 -140 -76 -144 36 -27 192
-98 217 -99 32 -1 33 -2 28 -37 -2 -20 -14 -58 -26 -85 -17 -38 -24 -46 -38
-40 -66 29 -196 76 -215 78 -27 3 -35 -25 -37 -125 l-1 -68 46 -21 c41 -18 55
-20 110 -12 35 5 68 7 72 4 10 -7 23 -85 26 -151 l1 -45 -108 0 -109 0 6 -34
c7 -45 62 -161 76 -161 7 0 48 16 93 35 44 19 84 32 87 28 4 -5 19 -39 35 -78
16 -38 33 -71 37 -73 20 -9 3 -22 -63 -48 -38 -15 -72 -30 -74 -34 -2 -4 24
-34 58 -67 l62 -61 70 43 c39 25 73 44 77 45 9 0 118 -108 118 -117 -1 -4 -21
-24 -45 -42 -24 -19 -41 -39 -38 -43 6 -11 110 -58 126 -58 6 0 33 21 59 47
l48 47 29 -17 c16 -9 52 -22 80 -28 28 -6 51 -14 51 -18 0 -5 -13 -22 -30 -39
-16 -18 -30 -36 -30 -41 0 -11 60 -21 132 -21 l56 0 7 39 c11 64 19 69 120 73
l90 3 3 -48 c2 -28 8 -47 15 -47 7 0 45 10 86 22 l73 22 -6 60 -6 61 69 51 69
50 -15 32 c-9 18 -19 32 -24 32 -5 0 -9 7 -9 15 0 8 -4 15 -10 15 -5 0 -10 4
-10 10 0 5 -7 18 -15 27 -8 10 -21 26 -28 37 -13 18 -15 18 -58 -7 -252 -146
-608 -91 -804 125 -95 106 -148 244 -148 388 0 192 95 373 252 479 80 54 86
64 66 95 -16 25 -16 26 11 50 29 24 54 25 54 1 0 -7 8 -23 18 -35 19 -23 19
-23 97 -7 43 8 81 19 84 24 3 4 15 15 25 23 18 14 18 14 6 -6 -12 -20 -10 -27
24 -72 23 -32 33 -53 26 -57 -6 -4 -12 -5 -13 -4 -41 78 -46 84 -75 87 -17 2
-50 -2 -74 -9 -37 -11 -68 -14 -101 -10 -5 1 -6 5 -3 9 3 5 -6 21 -18 37 -20
25 -26 28 -40 16 -21 -18 -20 -24 9 -59 l25 -30 -31 -7 c-27 -6 -30 -10 -24
-33 5 -22 4 -24 -9 -13 -34 28 -184 -119 -242 -235 -55 -111 -70 -259 -39
-379 48 -181 208 -348 398 -415 88 -31 261 -39 355 -15 71 17 193 73 199 91 2
5 -3 18 -10 28 -13 17 -16 17 -91 -4 -64 -18 -83 -20 -106 -10 -20 8 -48 9
-104 1 -222 -31 -428 73 -522 264 -91 187 -51 401 103 545 49 46 67 70 65 84
-3 14 0 18 6 11 5 -5 17 -44 26 -85 9 -41 19 -83 22 -92 3 -10 1 -18 -5 -18
-5 0 -13 25 -16 55 -4 30 -11 55 -15 55 -5 0 -10 8 -12 18 -6 27 -119 -87
-156 -156 -42 -79 -58 -141 -40 -157 16 -16 376 -130 384 -122 3 3 -2 18 -12
34 -28 46 -69 108 -74 113 -3 3 -12 19 -20 35 -8 17 -19 33 -23 36 -4 3 -10
23 -13 45 -4 35 -3 36 7 14 23 -52 53 -107 94 -170 53 -80 207 -329 265 -428
24 -41 49 -76 56 -79 21 -8 142 36 148 54 5 12 23 -7 64 -68 148 -215 214
-304 225 -304 8 0 12 -17 12 -45 0 -51 1 -53 118 -218 75 -106 82 -113 108
-107 22 5 29 2 34 -14 3 -12 11 -21 16 -21 5 0 14 -11 19 -25 5 -14 16 -28 24
-31 19 -7 204 117 295 198 73 65 85 92 55 122 -15 16 -36 23 -84 28 -17 2 -26
10 -28 24 -3 20 1 21 60 20 l63 -1 0 65 c-1 36 -5 107 -9 158 -8 81 -12 95
-29 101 -14 5 -17 10 -9 15 21 13 13 72 -20 135 -27 52 -35 61 -53 57 -11 -3
-26 -6 -33 -6 -7 0 -11 -4 -7 -10 3 -5 12 -7 21 -3 13 5 13 -1 -2 -38 -9 -24
-22 -49 -28 -56 -10 -10 -70 -26 -211 -53 -22 -5 -43 -6 -47 -4 -5 3 -8 25 -8
49 0 43 0 43 41 50 27 5 38 10 31 17 -6 6 -17 6 -30 -1 -30 -16 -37 -13 -19 7
16 17 15 20 -8 40 -31 27 -31 28 1 105 36 88 44 94 94 77 22 -7 43 -10 46 -7
9 8 22 139 16 155 -2 6 -19 12 -37 12 -41 0 -45 10 -45 106 0 70 2 75 25 86
31 14 32 39 4 113 l-21 57 -23 -22 -23 -22 -18 29 c-10 15 -33 46 -51 69 -39
48 -40 58 -13 102 l21 34 -36 44 c-20 24 -40 44 -45 44 -5 0 -16 -10 -25 -22
l-15 -23 -48 50 c-27 28 -61 58 -76 69 -24 16 -27 23 -22 52 6 31 4 34 -39 60
-63 36 -76 35 -90 -5 -19 -56 -35 -59 -103 -23 -33 18 -69 32 -80 32 -17 0
-22 8 -27 48 -3 26 -7 54 -8 62 -2 10 -24 18 -72 27 -83 14 -118 16 -113 6z
m35 -343 c9 -16 21 -30 25 -30 4 0 8 -6 8 -13 0 -7 43 -27 102 -46 84 -28 113
-43 174 -93 144 -116 210 -229 234 -399 9 -61 18 -81 70 -159 33 -49 69 -95
80 -103 19 -14 19 -14 -8 -38 -26 -23 -26 -23 -7 -1 19 23 19 23 -6 45 -27 22
-179 229 -179 242 0 4 7 2 15 -5 9 -7 18 -10 22 -6 12 11 -17 128 -47 191 -44
90 -157 222 -175 203 -2 -2 14 -28 36 -58 21 -30 42 -62 46 -70 4 -8 17 -29
30 -46 13 -17 23 -38 23 -48 0 -9 6 -19 14 -22 8 -3 17 -13 21 -22 5 -13 2
-13 -15 3 -21 19 -42 13 -22 -7 7 -7 12 -26 12 -43 0 -25 -8 -37 -37 -58 l-36
-26 -50 72 c-28 40 -88 125 -134 189 -46 64 -83 121 -83 126 0 5 20 23 45 41
43 31 75 35 75 11 0 -5 5 -10 10 -10 15 0 12 40 -2 44 -81 21 -151 36 -172 36
-16 0 -29 7 -33 18 -14 38 -57 92 -72 92 -9 0 -23 -6 -31 -12 -8 -7 -6 -3 4
10 26 30 41 28 63 -8z m-197 -121 c23 -12 39 -23 36 -26 -5 -5 -86 35 -86 42
0 8 8 6 50 -16z m77 -25 c-3 -3 -12 -4 -19 -1 -8 3 -5 6 6 6 11 1 17 -2 13 -5z
m610 -426 c-3 -7 -5 -2 -5 12 0 14 2 19 5 13 2 -7 2 -19 0 -25z m-104 -124
c-6 -15 -33 -20 -33 -5 0 5 3 17 6 25 5 13 10 14 20 6 7 -7 10 -18 7 -26z
m267 -208 c0 -2 -8 -10 -17 -17 -16 -13 -17 -12 -4 4 13 16 21 21 21 13z
m-440 -81 c0 -22 -33 -28 -48 -8 -8 11 -9 19 -2 21 5 2 10 11 10 19 0 14 3 14
20 -2 11 -10 20 -24 20 -30z m378 -3 c6 -15 27 -45 46 -65 28 -31 31 -37 15
-37 -11 0 -19 6 -19 13 0 7 -16 32 -35 54 -33 39 -44 63 -27 63 4 0 13 -13 20
-28z m-36 -39 c-6 -10 -21 -19 -34 -20 -22 -2 -22 -1 7 22 33 27 42 26 27 -2z
m203 -5 c-11 -6 -32 -20 -47 -30 -16 -11 -28 -16 -28 -11 0 9 70 52 85 52 6 0
1 -5 -10 -11z m-25 -122 c0 -19 -17 -29 -37 -22 -12 5 -13 9 -3 21 16 19 40
19 40 1z m-302 -98 c19 -19 14 -29 -8 -16 -20 13 -27 28 -12 28 4 0 13 -5 20
-12z"/>
<path d="M1699 1868 c20 -33 41 -48 41 -30 0 14 -40 62 -52 62 -5 0 -1 -15 11
-32z"/>
<path d="M1741 1814 c21 -51 48 -94 67 -108 13 -10 25 -16 27 -14 6 5 -74 123
-86 127 -6 2 -10 -1 -8 -5z"/>
<path d="M1830 1660 c0 -5 5 -10 10 -10 6 0 10 5 10 10 0 6 -4 10 -10 10 -5 0
-10 -4 -10 -10z"/>
<path d="M910 2423 c-69 -7 -225 -46 -292 -73 -127 -52 -202 -105 -298 -213
-99 -109 -145 -184 -201 -322 -41 -103 -56 -173 -64 -300 -5 -80 -2 -102 24
-193 35 -122 75 -190 171 -295 76 -82 199 -191 207 -183 2 2 -23 43 -56 91
-260 375 -215 869 111 1206 103 107 225 186 393 255 78 32 78 35 5 27z"/>
<path d="M1628 2393 c6 -2 12 -11 12 -18 0 -7 7 -15 15 -19 8 -3 15 -1 15 4 0
6 7 10 16 10 8 0 13 -4 10 -9 -3 -5 1 -14 9 -21 11 -9 18 -9 29 3 13 13 9 17
-40 36 -31 11 -61 21 -67 20 -8 0 -8 -2 1 -6z"/>
<path d="M908 2373 c7 -3 16 -2 19 1 4 3 -2 6 -13 5 -11 0 -14 -3 -6 -6z"/>
<path d="M808 2334 c-27 -13 -48 -27 -48 -29 0 -5 99 42 109 51 13 11 -20 0
-61 -22z"/>
<path d="M1990 2201 c25 -22 50 -40 55 -40 12 0 -51 55 -80 70 -11 6 0 -7 25
-30z"/>
<path d="M2030 2211 c0 -5 7 -12 16 -15 14 -5 15 -4 4 9 -14 17 -20 19 -20 6z"/>
<path d="M2100 2145 c14 -16 26 -32 28 -34 1 -2 4 -2 7 1 3 2 -10 18 -28 34
l-32 29 25 -30z"/>
<path d="M519 2123 l-24 -28 28 24 c25 23 32 31 24 31 -2 0 -14 -12 -28 -27z"/>
<path d="M459 2053 c-13 -16 -12 -17 4 -4 9 7 17 15 17 17 0 8 -8 3 -21 -13z"/>
<path d="M2186 2042 c23 -41 51 -68 50 -50 -1 7 -16 29 -35 48 l-35 35 20 -33z"/>
<path d="M2193 1976 c10 -10 24 -31 32 -47 9 -16 18 -29 21 -29 11 0 -42 84
-56 88 -11 4 -10 1 3 -12z"/>
<path d="M281 1704 c0 -11 3 -14 6 -6 3 7 2 16 -1 19 -3 4 -6 -2 -5 -13z"/>
<path d="M2322 1643 c-16 -29 -15 -43 2 -43 8 0 17 -6 19 -12 3 -7 5 -2 6 12
0 14 -4 34 -8 45 -8 19 -8 19 -19 -2z"/>
<path d="M2352 1525 c0 -16 2 -22 5 -12 2 9 2 23 0 30 -3 6 -5 -1 -5 -18z"/>
<path d="M822 1418 c12 -187 175 -367 369 -409 61 -13 234 -8 250 8 8 8 3 23
-17 54 -15 24 -30 46 -33 49 -4 3 -15 24 -25 48 -11 23 -22 42 -26 42 -3 0
-25 34 -49 76 -24 41 -48 77 -55 79 -6 1 -94 29 -196 60 -102 32 -194 60 -204
63 -18 5 -19 0 -14 -70z"/>
<path d="M251 1404 c0 -11 3 -14 6 -6 3 7 2 16 -1 19 -3 4 -6 -2 -5 -13z"/>
<path d="M262 1330 c0 -14 2 -19 5 -12 2 6 2 18 0 25 -3 6 -5 1 -5 -13z"/>
<path d="M271 1274 c0 -11 3 -14 6 -6 3 7 2 16 -1 19 -3 4 -6 -2 -5 -13z"/>
<path d="M2400 1110 c0 -13 20 -13 40 0 12 8 9 10 -12 10 -16 0 -28 -4 -28
-10z"/>
<path d="M2350 1100 c0 -5 9 -10 20 -10 11 0 20 5 20 10 0 6 -9 10 -20 10 -11
0 -20 -4 -20 -10z"/>
<path d="M2295 1090 c-3 -5 3 -10 14 -10 12 0 21 5 21 10 0 6 -6 10 -14 10 -8
0 -18 -4 -21 -10z"/>
<path d="M410 951 c5 -11 15 -23 21 -27 6 -3 3 5 -6 20 -20 30 -30 35 -15 7z"/>
<path d="M630 721 c0 -8 14 -19 78 -58 37 -23 26 -12 -30 31 -27 20 -48 32
-48 27z"/>
<path d="M1890 674 c0 -8 5 -12 10 -9 6 4 8 11 5 16 -9 14 -15 11 -15 -7z"/>
<path d="M998 533 c7 -3 16 -2 19 1 4 3 -2 6 -13 5 -11 0 -14 -3 -6 -6z"/>
<path d="M1038 523 c7 -3 16 -2 19 1 4 3 -2 6 -13 5 -11 0 -14 -3 -6 -6z"/>
<path d="M1078 513 c7 -3 16 -2 19 1 4 3 -2 6 -13 5 -11 0 -14 -3 -6 -6z"/>
<path d="M1443 503 c9 -2 23 -2 30 0 6 3 -1 5 -18 5 -16 0 -22 -2 -12 -5z"/>
<path d="M1343 493 c9 -2 25 -2 35 0 9 3 1 5 -18 5 -19 0 -27 -2 -17 -5z"/>
</g>
</svg>
