<?xml version="1.0" standalone="no"?>
<!DOCTYPE svg PUBLIC "-//W3C//DTD SVG 20010904//EN"
 "http://www.w3.org/TR/2001/REC-SVG-20010904/DTD/svg10.dtd">
<svg version="1.0" xmlns="http://www.w3.org/2000/svg"
 width="512.000000pt" height="512.000000pt" viewBox="0 0 512.000000 512.000000"
 preserveAspectRatio="xMidYMid meet">

<g transform="translate(0.000000,512.000000) scale(0.100000,-0.100000)"
fill="#000000" stroke="none">
<path d="M4457 4468 c-118 -15 -236 -106 -291 -222 l-25 -53 -128 -17 c-123
-16 -352 -59 -479 -89 l-61 -15 -84 56 c-156 102 -323 173 -519 219 -132 31
-395 43 -529 23 -523 -75 -955 -383 -1186 -848 -55 -112 -108 -266 -130 -382
-9 -47 -18 -95 -21 -107 -3 -16 -43 -49 -127 -105 -592 -395 -903 -770 -873
-1052 13 -130 103 -254 229 -315 244 -120 685 -112 1273 22 l101 23 49 -33
c379 -260 860 -343 1290 -223 577 162 1008 634 1111 1216 l17 96 125 86 c359
246 587 448 731 647 104 145 144 247 143 370 0 110 -27 178 -103 259 -52 55
-60 68 -70 126 -39 215 -224 348 -443 318z m-1657 -457 c516 -118 884 -543
936 -1077 l6 -72 -143 -81 c-318 -181 -737 -380 -1114 -529 -206 -81 -699
-248 -761 -257 -38 -6 -40 -4 -94 60 -149 178 -238 369 -276 592 -24 140 -15
353 20 481 62 226 149 384 295 536 182 189 419 316 681 362 104 18 339 11 450
-15z m1452 -206 c27 -24 75 -57 106 -72 51 -25 67 -28 162 -28 94 0 110 3 158
27 59 31 62 26 28 -47 -44 -94 -165 -233 -318 -365 -82 -72 -304 -240 -316
-240 -5 0 -14 30 -21 68 -30 167 -132 409 -235 557 l-55 80 92 18 c103 19 277
44 321 46 20 1 42 -11 78 -44z m-3236 -1232 c55 -250 125 -419 246 -602 27
-40 47 -75 45 -77 -8 -8 -283 -53 -395 -65 -170 -18 -389 -8 -477 22 -85 29
-100 51 -79 111 46 131 257 349 559 576 44 33 83 61 87 61 4 1 10 -11 14 -26z
m2606 -246 c-154 -328 -449 -568 -812 -657 -110 -27 -329 -38 -437 -20 -91 14
-209 45 -266 69 l-40 17 184 64 c389 134 853 332 1214 519 105 54 192 97 193
95 2 -1 -14 -40 -36 -87z"/>
<path d="M735 4317 c-55 -26 -110 -82 -131 -133 -20 -48 -17 -151 5 -199 23
-50 84 -109 133 -130 82 -34 205 -10 271 53 90 85 100 236 22 338 -66 86 -202
118 -300 71z"/>
<path d="M4455 1839 c-178 -19 -328 -109 -429 -256 -164 -241 -134 -559 73
-763 257 -253 686 -223 898 63 89 122 129 251 120 397 -21 341 -322 596 -662
559z"/>
</g>
</svg>
